# xmcd
#
# Track frame offsets:
#	150
#	4132
#	8446
#	12025
#	17624
#	23153
#	28397
#	33058
#	37197
#	40898
#	45345
#	48968
#	52611
#	56283
#	60474
#	63925
#	68850
#	74663
#	78964
#	84681
#	89060
#	92949
#	97296
#	101840
#	106510
#	110845
#	117262
#	123724
#	127665
#	131513
#	134892
#	138627
#	142708
#	147660
#	152412
#	158709
#	161478
#	168896
#	172503
#	176523
#	182797
#	187474
#	189663
#	192424
#	197794
#	203363
#	204515
#	205766
#	211016
#	215212
#
# Disc length: 2943 seconds
#
# Revision: 6
# Processed by: cddbd v1.5.2PL0 Copyright (c) Steve Scherf et al.
# Submitted via: EZCDAudioConverter 2.1.7.1
#
DISCID=c10b7d32
DTITLE=Various Artists / All-Time Top 100 TV Themes (Disc 2)
DYEAR=2002
DGENRE=Soundtrack
TTITLE0=Polly Cutter, Cynthia Bullen, Harry Nehls, Valerie Carte & Fred Freema
TTITLE0=n / 1 Day @ A Time
TTITLE1=John Sebastian / Welcome Back, Kotter (Welcome Back)
TTITLE2=Unknown Artist / Barney Miller
TTITLE3=Tom Scott / Starsky & Hutch (Gotcha)
TTITLE4=Unknown Artist / S. W. A. T.
TTITLE5=Ja'net Dubois & Oren Waters / The Jeffersons (Movin' On Up)
TTITLE6=Unknown Artist / Police Woman
TTITLE7=Mike Post / The Rockford Files
TTITLE8=Jim Gilstrap & Blinky Williams / Good Times
TTITLE9=Unknown Artist / The 6 Million Dollar Man
TTITLE10=Unknown Artist / M. A. S. H. (Suicide Is Painless)
TTITLE11=Unknown Artist / The Waltons
TTITLE12=Donny Hathaway / Maude (& Then There's Maude)
TTITLE13=Unknown Artist / Sanford & Son (The Streetbreaker)
TTITLE14=Carroll O'Connor & Jean Stapleton / All In The Family (Those Were The
TTITLE14= Days)
TTITLE15=David Cassidy, Ron Hicklin, Jackie Ward, Tom Bahler & John Bahler / T
TTITLE15=he Partridge Family (Come On Get Happy)
TTITLE16=Unknown Artist / The Odd Couple
TTITLE17=Sonny Curtis / The Mary Tyler Moore Show (Love Is All Around)
TTITLE18=Jim Haas,  Ron Hicklin, Stan Farber, Gene Morford & Gerry Garrett / H
TTITLE18=appy Days
TTITLE19=Joe Raposo Ft. The Kids / Sesame Street
TTITLE20=The Cowsills / Love, American Style
TTITLE21=Harry Nilsson / The Courtship Of Eddie's Father (The "Best Friend")
TTITLE22=The Brady Bunch Kids / The Brady Bunch
TTITLE23=Hoyt Curtin / Scooby-Doo (New Scooby-Doo Movies Theme)
TTITLE24=Morton Stevens / Hawaii 5-O
TTITLE25=Unknown Artist / The Banana Splits (The Tra La La Song)
TTITLE26=Unknown Artist / The Newlywed Game
TTITLE27=Unknown Artist / The Dating Game
TTITLE28=The Monkees / The Monkees (Hey, Hey, We're The Monkees)
TTITLE29=Unknown Artist / Batman
TTITLE30=Hugo Montenegro / I Dream Of Jeannie (Jeannie)
TTITLE31=Unknown Artist / The Wild Wild West
TTITLE32=Eddie Albert & Eva Gabor / Green Acres
TTITLE33=Bill Cole, Gene Merlino, Stan Farber, Ian Freebairn-Smith & Morton St
TTITLE33=evens / Gilligan's Island (The Ballad Of Gilligan's Isle)
TTITLE34=Vic Mizzy / The Addams Family
TTITLE35=Unknown Artist / Bewitched
TTITLE36=Unknown Artist / The Jetsons
TTITLE37=Unknown Artist / The Dick Van Dyke Show
TTITLE38=Earl Hagen / The Andy Griffith Show (The Fishin' Hole)
TTITLE39=Hoyt Curtin & Randy Van Horne Singers / The Flintstones (Meet The Fli
TTITLE39=ntstones)
TTITLE40=Unknown Artist / My 3 Sons
TTITLE41=Unknown Artist / The Twilight Zone
TTITLE42=Unknown Artist / Leave It To Beaver
TTITLE43=Leith Stevens & His Orch. / Perry Mason
TTITLE44=Unknown Artist / The Honeymooners
TTITLE45=Unknown Artist / Merry Melodies (Merrily We Roll Along)
TTITLE46=Unknown Artist / Looney Toons (Merry-Go-Round Broke Down)
TTITLE47=Unknown Artist / Dragnet (Danger Ahead)
TTITLE48=Wilbur Hatch & Orch. / I Love Lucy
TTITLE49=Unknown Artist / The Lone Ranger (William Tell Overture)
EXTD=
EXTT0=
EXTT1=
EXTT2=
EXTT3=
EXTT4=
EXTT5=
EXTT6=
EXTT7=
EXTT8=
EXTT9=
EXTT10=
EXTT11=
EXTT12=
EXTT13=
EXTT14=
EXTT15=
EXTT16=
EXTT17=
EXTT18=
EXTT19=
EXTT20=
EXTT21=
EXTT22=
EXTT23=
EXTT24=
EXTT25=
EXTT26=
EXTT27=
EXTT28=
EXTT29=
EXTT30=
EXTT31=
EXTT32=
EXTT33=
EXTT34=
EXTT35=
EXTT36=
EXTT37=
EXTT38=
EXTT39=
EXTT40=
EXTT41=
EXTT42=
EXTT43=
EXTT44=
EXTT45=
EXTT46=
EXTT47=
EXTT48=
EXTT49=
PLAYORDER=
.
